<mxfile host="Electron" modified="2024-02-09T14:54:37.803Z" agent="Mozilla/5.0 (Windows NT 10.0; Win64; x64) AppleWebKit/537.36 (KHTML, like Gecko) draw.io/22.1.16 Chrome/120.0.6099.109 Electron/28.1.0 Safari/537.36" etag="vjMZSkquxe8QBCTA5lMc" version="22.1.16" type="device">
  <diagram name="Page-1" id="lv2RBA-2qfxnkMvO_x3A">
    <mxGraphModel dx="336" dy="812" grid="1" gridSize="10" guides="1" tooltips="1" connect="1" arrows="1" fold="1" page="1" pageScale="1" pageWidth="850" pageHeight="1100" math="0" shadow="0">
      <root>
        <mxCell id="0" />
        <mxCell id="1" parent="0" />
        <mxCell id="O5-8CPs11LgDphCisBiJ-3" value="" style="group;fillColor=#232136;strokeColor=#232136;strokeWidth=22;" parent="1" vertex="1" connectable="0">
          <mxGeometry x="940" y="290" width="573.1" height="458" as="geometry" />
        </mxCell>
        <mxCell id="4REqOIB7tcGAyymllORO-14" style="edgeStyle=orthogonalEdgeStyle;shape=connector;curved=0;rounded=0;orthogonalLoop=1;jettySize=auto;html=1;exitX=0;exitY=0.5;exitDx=0;exitDy=0;labelBackgroundColor=default;strokeColor=#DB918D;strokeWidth=3;align=center;verticalAlign=middle;fontFamily=Helvetica;fontSize=11;fontColor=#FFFFFF;endArrow=none;endFill=0;startArrow=openThin;startFill=0;fontStyle=0" parent="O5-8CPs11LgDphCisBiJ-3" source="4REqOIB7tcGAyymllORO-15" edge="1">
          <mxGeometry relative="1" as="geometry">
            <mxPoint x="1.2300442918188488" y="149.50804597701148" as="targetPoint" />
          </mxGeometry>
        </mxCell>
        <mxCell id="4REqOIB7tcGAyymllORO-15" value="&lt;b style=&quot;border-color: var(--border-color); font-size: 14px;&quot;&gt;&lt;font style=&quot;border-color: var(--border-color); font-size: 14px;&quot;&gt;locations:&lt;/font&gt;&lt;/b&gt;" style="rounded=1;whiteSpace=wrap;html=1;strokeColor=#DB918D;fontFamily=Helvetica;fontSize=14;fontColor=#FFFFFF;fillColor=none;arcSize=50;fontStyle=0;shadow=0;labelBackgroundColor=none;align=center;verticalAlign=middle;strokeWidth=3;container=0;" parent="O5-8CPs11LgDphCisBiJ-3" vertex="1">
          <mxGeometry x="91.73893972800526" y="133.71494252873563" width="88.07117129421866" height="31.586206896551722" as="geometry" />
        </mxCell>
        <mxCell id="3jkLYGCz1c5kdh6TVQaA-1" value="" style="edgeStyle=orthogonalEdgeStyle;rounded=0;orthogonalLoop=1;jettySize=auto;html=1;" edge="1" parent="O5-8CPs11LgDphCisBiJ-3" source="4REqOIB7tcGAyymllORO-19" target="4REqOIB7tcGAyymllORO-117">
          <mxGeometry relative="1" as="geometry" />
        </mxCell>
        <mxCell id="4REqOIB7tcGAyymllORO-19" value="&lt;font style=&quot;font-size: 14px;&quot;&gt;&lt;b style=&quot;font-size: 14px;&quot;&gt;Locations&lt;/b&gt;&lt;/font&gt;" style="text;html=1;strokeColor=none;fillColor=none;align=left;verticalAlign=middle;whiteSpace=wrap;rounded=0;fontSize=14;fontFamily=Helvetica;fontColor=#FFFFFF;fontStyle=0;container=0;" parent="O5-8CPs11LgDphCisBiJ-3" vertex="1">
          <mxGeometry x="2.012799750248852" y="123.18620689655172" width="67.09332500829252" height="31.586206896551722" as="geometry" />
        </mxCell>
        <mxCell id="4REqOIB7tcGAyymllORO-65" style="edgeStyle=orthogonalEdgeStyle;shape=connector;curved=0;rounded=1;orthogonalLoop=1;jettySize=auto;html=1;exitX=1;exitY=0.5;exitDx=0;exitDy=0;labelBackgroundColor=default;strokeColor=#DB918D;strokeWidth=3;align=center;verticalAlign=middle;fontFamily=Helvetica;fontSize=11;fontColor=#FFFFFF;startArrow=none;startFill=0;endArrow=none;endFill=0;fontStyle=0" parent="O5-8CPs11LgDphCisBiJ-3" source="4REqOIB7tcGAyymllORO-50" edge="1">
          <mxGeometry relative="1" as="geometry">
            <mxPoint x="558.451290706523" y="151.61379310344827" as="targetPoint" />
            <Array as="points">
              <mxPoint x="536.0868490370921" y="125.2919540229885" />
              <mxPoint x="536.0868490370921" y="151.61379310344827" />
            </Array>
          </mxGeometry>
        </mxCell>
        <mxCell id="4REqOIB7tcGAyymllORO-50" value="&lt;b style=&quot;border-color: var(--border-color); font-size: 14px;&quot;&gt;&lt;font style=&quot;border-color: var(--border-color); font-size: 14px;&quot;&gt;Locations&lt;/font&gt;&lt;/b&gt;" style="rounded=1;whiteSpace=wrap;html=1;strokeColor=#DB918D;fontFamily=Helvetica;fontSize=14;fontColor=#FFFFFF;fillColor=none;arcSize=0;fontStyle=0;shadow=0;labelBackgroundColor=none;container=0;strokeWidth=3;" parent="O5-8CPs11LgDphCisBiJ-3" vertex="1">
          <mxGeometry x="400.42414587032414" y="109.49885057471263" width="89.8379621861037" height="31.586206896551722" as="geometry" />
        </mxCell>
        <mxCell id="4REqOIB7tcGAyymllORO-55" style="edgeStyle=orthogonalEdgeStyle;shape=connector;curved=0;rounded=1;orthogonalLoop=1;jettySize=auto;html=1;exitX=1;exitY=0.5;exitDx=0;exitDy=0;entryX=0;entryY=0.5;entryDx=0;entryDy=0;labelBackgroundColor=default;strokeColor=#DB918D;strokeWidth=3;align=center;verticalAlign=middle;fontFamily=Helvetica;fontSize=11;fontColor=#FFFFFF;startArrow=none;startFill=0;endArrow=openThin;endFill=0;fontStyle=0" parent="O5-8CPs11LgDphCisBiJ-3" source="4REqOIB7tcGAyymllORO-51" target="4REqOIB7tcGAyymllORO-50" edge="1">
          <mxGeometry relative="1" as="geometry">
            <Array as="points">
              <mxPoint x="345.98909484692996" y="149.50804597701148" />
              <mxPoint x="345.98909484692996" y="125.2919540229885" />
            </Array>
          </mxGeometry>
        </mxCell>
        <mxCell id="4REqOIB7tcGAyymllORO-51" value="&lt;p style=&quot;font-size: 14px;&quot;&gt;&lt;font style=&quot;font-size: 14px;&quot;&gt;&lt;b style=&quot;font-size: 14px;&quot;&gt;location-name:&lt;/b&gt;&lt;/font&gt;&lt;/p&gt;" style="rounded=1;whiteSpace=wrap;html=1;arcSize=50;fontStyle=0;fillColor=none;strokeColor=#DB918D;labelBackgroundColor=none;fontColor=#FFFFFF;container=0;strokeWidth=3;fontSize=14;" parent="O5-8CPs11LgDphCisBiJ-3" vertex="1">
          <mxGeometry x="206.97855900914684" y="133.71494252873563" width="120.20887397319078" height="31.586206896551722" as="geometry" />
        </mxCell>
        <mxCell id="4REqOIB7tcGAyymllORO-53" value="" style="edgeStyle=orthogonalEdgeStyle;shape=connector;curved=0;rounded=0;orthogonalLoop=1;jettySize=auto;html=1;labelBackgroundColor=default;strokeColor=#DB918D;strokeWidth=3;align=center;verticalAlign=middle;fontFamily=Helvetica;fontSize=11;fontColor=#FFFFFF;startArrow=none;startFill=0;endArrow=openThin;endFill=0;fontStyle=0" parent="O5-8CPs11LgDphCisBiJ-3" source="4REqOIB7tcGAyymllORO-15" target="4REqOIB7tcGAyymllORO-51" edge="1">
          <mxGeometry relative="1" as="geometry">
            <Array as="points">
              <mxPoint x="189.43800316091404" y="149.50804597701148" />
              <mxPoint x="189.43800316091404" y="149.50804597701148" />
            </Array>
          </mxGeometry>
        </mxCell>
        <mxCell id="4REqOIB7tcGAyymllORO-64" style="edgeStyle=orthogonalEdgeStyle;shape=connector;curved=0;rounded=1;orthogonalLoop=1;jettySize=auto;html=1;exitX=1;exitY=0.5;exitDx=0;exitDy=0;labelBackgroundColor=default;strokeColor=#DB918D;strokeWidth=3;align=center;verticalAlign=middle;fontFamily=Helvetica;fontSize=11;fontColor=#FFFFFF;startArrow=none;startFill=0;endArrow=openThin;endFill=0;entryX=-0.004;entryY=0.719;entryDx=0;entryDy=0;entryPerimeter=0;fontStyle=0" parent="O5-8CPs11LgDphCisBiJ-3" source="4REqOIB7tcGAyymllORO-54" edge="1">
          <mxGeometry relative="1" as="geometry">
            <mxPoint x="571.333209108115" y="151.43480459770117" as="targetPoint" />
            <Array as="points">
              <mxPoint x="536.0868490370921" y="176.88275862068966" />
              <mxPoint x="536.0868490370921" y="151.61379310344827" />
              <mxPoint x="571.8699557081815" y="151.61379310344827" />
            </Array>
          </mxGeometry>
        </mxCell>
        <mxCell id="4REqOIB7tcGAyymllORO-54" value="&lt;b style=&quot;border-color: var(--border-color); font-size: 14px;&quot;&gt;&lt;font style=&quot;border-color: var(--border-color); font-size: 14px;&quot;&gt;Data Requirements&lt;/font&gt;&lt;/b&gt;" style="rounded=1;whiteSpace=wrap;html=1;strokeColor=#DB918D;fontFamily=Helvetica;fontSize=14;fontColor=#FFFFFF;fillColor=none;arcSize=0;fontStyle=0;shadow=0;labelBackgroundColor=none;container=0;strokeWidth=3;" parent="O5-8CPs11LgDphCisBiJ-3" vertex="1">
          <mxGeometry x="370.60116290413833" y="161.08965517241379" width="149.48392811847575" height="31.586206896551722" as="geometry" />
        </mxCell>
        <mxCell id="4REqOIB7tcGAyymllORO-56" style="edgeStyle=orthogonalEdgeStyle;shape=connector;curved=0;rounded=1;orthogonalLoop=1;jettySize=auto;html=1;exitX=1;exitY=0.5;exitDx=0;exitDy=0;entryX=0;entryY=0.5;entryDx=0;entryDy=0;labelBackgroundColor=default;strokeColor=#DB918D;strokeWidth=3;align=center;verticalAlign=middle;fontFamily=Helvetica;fontSize=11;fontColor=#FFFFFF;startArrow=none;startFill=0;endArrow=openThin;endFill=0;fontStyle=0" parent="O5-8CPs11LgDphCisBiJ-3" source="4REqOIB7tcGAyymllORO-51" target="4REqOIB7tcGAyymllORO-54" edge="1">
          <mxGeometry relative="1" as="geometry">
            <Array as="points">
              <mxPoint x="345.98909484692996" y="149.50804597701148" />
              <mxPoint x="345.98909484692996" y="176.88275862068966" />
            </Array>
          </mxGeometry>
        </mxCell>
        <mxCell id="4REqOIB7tcGAyymllORO-2" style="edgeStyle=orthogonalEdgeStyle;shape=connector;curved=0;rounded=0;orthogonalLoop=1;jettySize=auto;html=1;exitX=0;exitY=0.5;exitDx=0;exitDy=0;labelBackgroundColor=default;strokeColor=#DB918D;strokeWidth=3;align=center;verticalAlign=middle;fontFamily=Helvetica;fontSize=11;fontColor=#FFFFFF;endArrow=none;endFill=0;startArrow=openThin;startFill=0;fontStyle=0" parent="O5-8CPs11LgDphCisBiJ-3" source="4REqOIB7tcGAyymllORO-3" edge="1">
          <mxGeometry relative="1" as="geometry">
            <mxPoint x="1.4033687147569074" y="15.793103448275861" as="targetPoint" />
          </mxGeometry>
        </mxCell>
        <mxCell id="4REqOIB7tcGAyymllORO-3" value="&lt;b style=&quot;border-color: var(--border-color); font-size: 14px;&quot;&gt;&lt;font style=&quot;border-color: var(--border-color); font-size: 14px;&quot;&gt;Application&lt;/font&gt;&lt;/b&gt;" style="rounded=1;whiteSpace=wrap;html=1;strokeColor=#DB918D;fontFamily=Helvetica;fontSize=14;fontColor=#FFFFFF;fillColor=none;arcSize=0;fontStyle=0;shadow=0;labelBackgroundColor=none;align=center;verticalAlign=top;strokeWidth=3;container=0;" parent="O5-8CPs11LgDphCisBiJ-3" vertex="1">
          <mxGeometry x="138.94468498175658" width="106.23109792979649" height="31.586206896551722" as="geometry" />
        </mxCell>
        <mxCell id="4REqOIB7tcGAyymllORO-4" style="edgeStyle=orthogonalEdgeStyle;shape=connector;curved=0;rounded=0;orthogonalLoop=1;jettySize=auto;html=1;exitX=1;exitY=0.5;exitDx=0;exitDy=0;labelBackgroundColor=default;strokeColor=#DB918D;strokeWidth=3;align=center;verticalAlign=middle;fontFamily=Helvetica;fontSize=11;fontColor=#FFFFFF;endArrow=openThin;endFill=0;fontStyle=0" parent="O5-8CPs11LgDphCisBiJ-3" source="4REqOIB7tcGAyymllORO-5" edge="1">
          <mxGeometry relative="1" as="geometry">
            <mxPoint x="571.6966312852434" y="15.793103448275861" as="targetPoint" />
          </mxGeometry>
        </mxCell>
        <mxCell id="4REqOIB7tcGAyymllORO-5" value="&lt;b style=&quot;border-color: var(--border-color); font-size: 14px;&quot;&gt;&lt;font style=&quot;border-color: var(--border-color); font-size: 14px;&quot;&gt;Locations&lt;/font&gt;&lt;/b&gt;" style="rounded=1;whiteSpace=wrap;html=1;strokeColor=#DB918D;fontFamily=Helvetica;fontSize=14;fontColor=#FFFFFF;fillColor=none;arcSize=0;fontStyle=0;shadow=0;labelBackgroundColor=none;verticalAlign=top;strokeWidth=3;container=0;" parent="O5-8CPs11LgDphCisBiJ-3" vertex="1">
          <mxGeometry x="329.0424391719187" width="106.23109792979649" height="31.586206896551722" as="geometry" />
        </mxCell>
        <mxCell id="4REqOIB7tcGAyymllORO-6" style="edgeStyle=orthogonalEdgeStyle;shape=connector;curved=0;rounded=0;orthogonalLoop=1;jettySize=auto;html=1;exitX=1;exitY=0.5;exitDx=0;exitDy=0;labelBackgroundColor=default;strokeColor=#DB918D;strokeWidth=3;align=center;verticalAlign=middle;fontFamily=Helvetica;fontSize=11;fontColor=#FFFFFF;endArrow=openThin;endFill=0;fontStyle=0" parent="O5-8CPs11LgDphCisBiJ-3" source="4REqOIB7tcGAyymllORO-3" target="4REqOIB7tcGAyymllORO-5" edge="1">
          <mxGeometry relative="1" as="geometry" />
        </mxCell>
        <mxCell id="MEt0MIwIxQcFvyBTdbw6-34" style="edgeStyle=orthogonalEdgeStyle;shape=connector;curved=0;rounded=0;orthogonalLoop=1;jettySize=auto;html=1;exitX=0;exitY=0.5;exitDx=0;exitDy=0;labelBackgroundColor=default;strokeColor=#DB918D;strokeWidth=3;align=center;verticalAlign=middle;fontFamily=Helvetica;fontSize=11;fontColor=#FFFFFF;endArrow=none;endFill=0;startArrow=openThin;startFill=0;fontStyle=0" parent="O5-8CPs11LgDphCisBiJ-3" source="MEt0MIwIxQcFvyBTdbw6-35" edge="1">
          <mxGeometry relative="1" as="geometry">
            <mxPoint x="1.2300442918188488" y="64.22528735632184" as="targetPoint" />
          </mxGeometry>
        </mxCell>
        <mxCell id="MEt0MIwIxQcFvyBTdbw6-35" value="&lt;b style=&quot;border-color: var(--border-color); font-size: 14px;&quot;&gt;&lt;font style=&quot;border-color: var(--border-color); font-size: 14px;&quot;&gt;application:&lt;/font&gt;&lt;/b&gt;" style="rounded=1;whiteSpace=wrap;html=1;strokeColor=#DB918D;fontFamily=Helvetica;fontSize=14;fontColor=#FFFFFF;fillColor=none;arcSize=50;fontStyle=0;shadow=0;labelBackgroundColor=none;align=center;verticalAlign=middle;strokeWidth=3;container=0;" parent="O5-8CPs11LgDphCisBiJ-3" vertex="1">
          <mxGeometry x="91.73893972800526" y="48.43218390804598" width="88.07117129421866" height="31.586206896551722" as="geometry" />
        </mxCell>
        <mxCell id="MEt0MIwIxQcFvyBTdbw6-36" style="edgeStyle=orthogonalEdgeStyle;shape=connector;curved=0;rounded=0;orthogonalLoop=1;jettySize=auto;html=1;exitX=1;exitY=0.5;exitDx=0;exitDy=0;labelBackgroundColor=default;strokeColor=#DB918D;strokeWidth=3;align=center;verticalAlign=middle;fontFamily=Helvetica;fontSize=11;fontColor=#FFFFFF;endArrow=openThin;endFill=0;fontStyle=0" parent="O5-8CPs11LgDphCisBiJ-3" source="MEt0MIwIxQcFvyBTdbw6-46" edge="1">
          <mxGeometry relative="1" as="geometry">
            <mxPoint x="571.8699557081815" y="64.22528735632184" as="targetPoint" />
            <mxPoint x="556.2148465395808" y="64.22528735632184" as="sourcePoint" />
            <Array as="points" />
          </mxGeometry>
        </mxCell>
        <mxCell id="MEt0MIwIxQcFvyBTdbw6-37" value="&lt;b style=&quot;border-color: var(--border-color); font-size: 14px;&quot;&gt;&lt;font style=&quot;border-color: var(--border-color); font-size: 14px;&quot;&gt;name:&lt;/font&gt;&lt;/b&gt;" style="rounded=1;whiteSpace=wrap;html=1;strokeColor=#DB918D;fontFamily=Helvetica;fontSize=14;fontColor=#FFFFFF;fillColor=none;arcSize=50;fontStyle=0;shadow=0;labelBackgroundColor=none;verticalAlign=middle;strokeWidth=3;container=0;" parent="O5-8CPs11LgDphCisBiJ-3" vertex="1">
          <mxGeometry x="201.39179723322488" y="48.43218390804598" width="61.848863436810994" height="31.586206896551722" as="geometry" />
        </mxCell>
        <mxCell id="MEt0MIwIxQcFvyBTdbw6-38" style="edgeStyle=orthogonalEdgeStyle;shape=connector;curved=0;rounded=0;orthogonalLoop=1;jettySize=auto;html=1;exitX=1;exitY=0.5;exitDx=0;exitDy=0;labelBackgroundColor=default;strokeColor=#DB918D;strokeWidth=3;align=center;verticalAlign=middle;fontFamily=Helvetica;fontSize=11;fontColor=#FFFFFF;endArrow=openThin;endFill=0;fontStyle=0" parent="O5-8CPs11LgDphCisBiJ-3" source="MEt0MIwIxQcFvyBTdbw6-35" target="MEt0MIwIxQcFvyBTdbw6-37" edge="1">
          <mxGeometry relative="1" as="geometry">
            <Array as="points">
              <mxPoint x="214.03888899728796" y="64.22528735632184" />
              <mxPoint x="214.03888899728796" y="64.22528735632184" />
            </Array>
          </mxGeometry>
        </mxCell>
        <mxCell id="MEt0MIwIxQcFvyBTdbw6-39" value="&lt;font style=&quot;font-size: 14px;&quot;&gt;&lt;b style=&quot;font-size: 14px;&quot;&gt;Application&lt;/b&gt;&lt;/font&gt;" style="text;html=1;strokeColor=none;fillColor=none;align=center;verticalAlign=middle;whiteSpace=wrap;rounded=0;fontSize=14;fontFamily=Helvetica;fontColor=#FFFFFF;fontStyle=0;container=0;" parent="O5-8CPs11LgDphCisBiJ-3" vertex="1">
          <mxGeometry x="5.3674660006634785" y="37.90344827586207" width="67.09332500829252" height="31.586206896551722" as="geometry" />
        </mxCell>
        <mxCell id="MEt0MIwIxQcFvyBTdbw6-42" value="" style="edgeStyle=orthogonalEdgeStyle;shape=connector;curved=0;rounded=0;orthogonalLoop=1;jettySize=auto;html=1;exitX=1;exitY=0.5;exitDx=0;exitDy=0;labelBackgroundColor=default;strokeColor=#DB918D;strokeWidth=3;align=center;verticalAlign=middle;fontFamily=Helvetica;fontSize=11;fontColor=#FFFFFF;endArrow=openThin;endFill=0;fontStyle=0" parent="O5-8CPs11LgDphCisBiJ-3" source="MEt0MIwIxQcFvyBTdbw6-37" target="MEt0MIwIxQcFvyBTdbw6-41" edge="1">
          <mxGeometry relative="1" as="geometry">
            <mxPoint x="571.5233068623054" y="64.22528735632184" as="targetPoint" />
            <mxPoint x="281.13221400558047" y="64.22528735632184" as="sourcePoint" />
            <Array as="points">
              <mxPoint x="281.13221400558047" y="64.22528735632184" />
              <mxPoint x="281.13221400558047" y="64.22528735632184" />
            </Array>
          </mxGeometry>
        </mxCell>
        <mxCell id="MEt0MIwIxQcFvyBTdbw6-45" style="edgeStyle=orthogonalEdgeStyle;shape=connector;curved=0;rounded=1;orthogonalLoop=1;jettySize=auto;html=1;labelBackgroundColor=default;strokeColor=#DB918D;strokeWidth=3;align=center;verticalAlign=middle;fontFamily=Helvetica;fontSize=11;fontColor=#FFFFFF;endArrow=none;endFill=0;fontStyle=0" parent="O5-8CPs11LgDphCisBiJ-3" source="MEt0MIwIxQcFvyBTdbw6-41" edge="1">
          <mxGeometry relative="1" as="geometry">
            <mxPoint x="560.6877348734661" y="64.22528735632184" as="targetPoint" />
            <Array as="points">
              <mxPoint x="351.58020526428766" y="64.22528735632184" />
              <mxPoint x="351.58020526428766" y="90.54712643678161" />
              <mxPoint x="549.5055140387506" y="90.54712643678161" />
              <mxPoint x="549.5055140387506" y="64.22528735632184" />
            </Array>
          </mxGeometry>
        </mxCell>
        <mxCell id="MEt0MIwIxQcFvyBTdbw6-41" value="&lt;b style=&quot;border-color: var(--border-color); font-size: 14px;&quot;&gt;&lt;font style=&quot;border-color: var(--border-color); font-size: 14px;&quot;&gt;String&lt;/font&gt;&lt;/b&gt;" style="ellipse;whiteSpace=wrap;html=1;rounded=1;labelBackgroundColor=none;strokeColor=#DB918D;fontFamily=Helvetica;fontSize=14;fontColor=#FFFFFF;fillColor=none;container=0;strokeWidth=3;fontStyle=0" parent="O5-8CPs11LgDphCisBiJ-3" vertex="1">
          <mxGeometry x="283.55875592671384" y="48.43218390804598" width="56.83922850285848" height="31.586206896551722" as="geometry" />
        </mxCell>
        <mxCell id="MEt0MIwIxQcFvyBTdbw6-44" value="" style="edgeStyle=orthogonalEdgeStyle;shape=connector;curved=0;rounded=0;orthogonalLoop=1;jettySize=auto;html=1;exitX=1;exitY=0.5;exitDx=0;exitDy=0;labelBackgroundColor=default;strokeColor=#DB918D;strokeWidth=3;align=center;verticalAlign=middle;fontFamily=Helvetica;fontSize=11;fontColor=#FFFFFF;endArrow=openThin;endFill=0;fontStyle=0" parent="O5-8CPs11LgDphCisBiJ-3" source="MEt0MIwIxQcFvyBTdbw6-41" target="MEt0MIwIxQcFvyBTdbw6-43" edge="1">
          <mxGeometry relative="1" as="geometry">
            <mxPoint x="571.5233068623054" y="64.22528735632184" as="targetPoint" />
            <mxPoint x="359.40775984858846" y="64.22528735632184" as="sourcePoint" />
            <Array as="points">
              <mxPoint x="359.40775984858846" y="64.22528735632184" />
              <mxPoint x="359.40775984858846" y="64.22528735632184" />
            </Array>
          </mxGeometry>
        </mxCell>
        <mxCell id="MEt0MIwIxQcFvyBTdbw6-43" value="&lt;b style=&quot;border-color: var(--border-color); font-size: 14px;&quot;&gt;&lt;font style=&quot;border-color: var(--border-color); font-size: 14px;&quot;&gt;description:&lt;/font&gt;&lt;/b&gt;" style="rounded=1;whiteSpace=wrap;html=1;strokeColor=#DB918D;fontFamily=Helvetica;fontSize=14;fontColor=#FFFFFF;fillColor=none;arcSize=50;fontStyle=0;shadow=0;labelBackgroundColor=none;verticalAlign=middle;strokeWidth=3;container=0;" parent="O5-8CPs11LgDphCisBiJ-3" vertex="1">
          <mxGeometry x="368.35353651636075" y="48.43218390804598" width="95.04887709508108" height="31.586206896551722" as="geometry" />
        </mxCell>
        <mxCell id="MEt0MIwIxQcFvyBTdbw6-47" value="" style="edgeStyle=orthogonalEdgeStyle;shape=connector;curved=0;rounded=0;orthogonalLoop=1;jettySize=auto;html=1;exitX=1;exitY=0.5;exitDx=0;exitDy=0;labelBackgroundColor=default;strokeColor=#DB918D;strokeWidth=3;align=center;verticalAlign=middle;fontFamily=Helvetica;fontSize=11;fontColor=#FFFFFF;endArrow=openThin;endFill=0;fontStyle=0" parent="O5-8CPs11LgDphCisBiJ-3" source="MEt0MIwIxQcFvyBTdbw6-43" target="MEt0MIwIxQcFvyBTdbw6-46" edge="1">
          <mxGeometry relative="1" as="geometry">
            <mxPoint x="571.5233068623054" y="64.22528735632184" as="targetPoint" />
            <mxPoint x="482.4121890304581" y="64.22528735632184" as="sourcePoint" />
            <Array as="points">
              <mxPoint x="482.4121890304581" y="64.22528735632184" />
              <mxPoint x="482.4121890304581" y="64.22528735632184" />
            </Array>
          </mxGeometry>
        </mxCell>
        <mxCell id="MEt0MIwIxQcFvyBTdbw6-46" value="&lt;b style=&quot;border-color: var(--border-color); font-size: 14px;&quot;&gt;&lt;font style=&quot;border-color: var(--border-color); font-size: 14px;&quot;&gt;String&lt;/font&gt;&lt;/b&gt;" style="ellipse;whiteSpace=wrap;html=1;rounded=1;labelBackgroundColor=none;strokeColor=#DB918D;fontFamily=Helvetica;fontSize=14;fontColor=#FFFFFF;fillColor=none;container=0;strokeWidth=3;fontStyle=0" parent="O5-8CPs11LgDphCisBiJ-3" vertex="1">
          <mxGeometry x="483.5304111139296" y="48.43218390804598" width="60.383992507463276" height="31.586206896551722" as="geometry" />
        </mxCell>
        <mxCell id="4REqOIB7tcGAyymllORO-69" style="edgeStyle=orthogonalEdgeStyle;shape=connector;curved=0;rounded=0;orthogonalLoop=1;jettySize=auto;html=1;exitX=0;exitY=0.5;exitDx=0;exitDy=0;labelBackgroundColor=default;strokeColor=#DB918D;strokeWidth=3;align=center;verticalAlign=middle;fontFamily=Helvetica;fontSize=11;fontColor=#FFFFFF;endArrow=none;endFill=0;startArrow=openThin;startFill=0;fontStyle=0" parent="O5-8CPs11LgDphCisBiJ-3" source="4REqOIB7tcGAyymllORO-70" edge="1">
          <mxGeometry relative="1" as="geometry">
            <mxPoint x="1.453688708513081" y="236.8965517241379" as="targetPoint" />
          </mxGeometry>
        </mxCell>
        <mxCell id="4REqOIB7tcGAyymllORO-70" value="&lt;font style=&quot;font-size: 14px;&quot;&gt;&lt;b style=&quot;font-size: 14px;&quot;&gt;data-requirements:&lt;/b&gt;&lt;/font&gt;" style="rounded=1;whiteSpace=wrap;html=1;strokeColor=#DB918D;fontFamily=Helvetica;fontSize=14;fontColor=#FFFFFF;fillColor=none;arcSize=50;fontStyle=0;shadow=0;labelBackgroundColor=none;align=center;verticalAlign=middle;strokeWidth=3;container=0;" parent="O5-8CPs11LgDphCisBiJ-3" vertex="1">
          <mxGeometry x="102.95470722522481" y="221.10344827586206" width="134.18665001658505" height="31.586206896551722" as="geometry" />
        </mxCell>
        <mxCell id="4REqOIB7tcGAyymllORO-71" value="&lt;font style=&quot;font-size: 14px;&quot;&gt;&lt;b style=&quot;font-size: 14px;&quot;&gt;Data&lt;br style=&quot;font-size: 14px;&quot;&gt;Requirements&lt;br style=&quot;font-size: 14px;&quot;&gt;&lt;/b&gt;&lt;/font&gt;" style="text;html=1;strokeColor=none;fillColor=none;align=left;verticalAlign=middle;whiteSpace=wrap;rounded=0;fontSize=14;fontFamily=Helvetica;fontColor=#FFFFFF;container=0;fontStyle=0" parent="O5-8CPs11LgDphCisBiJ-3" vertex="1">
          <mxGeometry y="201.09885057471263" width="67.09332500829252" height="31.586206896551722" as="geometry" />
        </mxCell>
        <mxCell id="4REqOIB7tcGAyymllORO-104" value="&lt;font style=&quot;font-size: 14px;&quot;&gt;&lt;b style=&quot;font-size: 14px;&quot;&gt;data-key:&lt;/b&gt;&lt;/font&gt;" style="rounded=1;whiteSpace=wrap;html=1;strokeColor=#DB918D;fontFamily=Helvetica;fontSize=14;fontColor=#FFFFFF;fillColor=none;arcSize=50;fontStyle=0;shadow=0;labelBackgroundColor=none;align=center;verticalAlign=middle;strokeWidth=3;container=0;" parent="O5-8CPs11LgDphCisBiJ-3" vertex="1">
          <mxGeometry x="293.052461415387" y="221.10344827586206" width="78.73401689723127" height="31.586206896551722" as="geometry" />
        </mxCell>
        <mxCell id="4REqOIB7tcGAyymllORO-112" style="edgeStyle=orthogonalEdgeStyle;shape=connector;curved=0;rounded=1;orthogonalLoop=1;jettySize=auto;html=1;entryX=0;entryY=0.5;entryDx=0;entryDy=0;labelBackgroundColor=default;strokeColor=#DB918D;strokeWidth=3;align=center;verticalAlign=middle;fontFamily=Helvetica;fontSize=11;fontColor=#FFFFFF;startArrow=none;startFill=0;endArrow=openThin;endFill=0;fontStyle=0" parent="O5-8CPs11LgDphCisBiJ-3" source="4REqOIB7tcGAyymllORO-70" target="4REqOIB7tcGAyymllORO-104" edge="1">
          <mxGeometry relative="1" as="geometry" />
        </mxCell>
        <mxCell id="4REqOIB7tcGAyymllORO-105" value="&lt;b style=&quot;border-color: var(--border-color); font-size: 14px;&quot;&gt;&lt;font style=&quot;border-color: var(--border-color); font-size: 14px;&quot;&gt;Output&lt;/font&gt;&lt;/b&gt;" style="rounded=1;whiteSpace=wrap;html=1;strokeColor=#DB918D;fontFamily=Helvetica;fontSize=14;fontColor=#FFFFFF;fillColor=none;arcSize=0;fontStyle=0;shadow=0;labelBackgroundColor=none;container=0;strokeWidth=3;" parent="O5-8CPs11LgDphCisBiJ-3" vertex="1">
          <mxGeometry x="82.26759868100129" y="270.5885057471264" width="61.50221459093482" height="31.586206896551722" as="geometry" />
        </mxCell>
        <mxCell id="4REqOIB7tcGAyymllORO-125" style="edgeStyle=orthogonalEdgeStyle;shape=connector;curved=0;rounded=1;orthogonalLoop=1;jettySize=auto;html=1;exitX=1;exitY=0.5;exitDx=0;exitDy=0;labelBackgroundColor=default;strokeColor=#DB918D;strokeWidth=3;align=center;verticalAlign=middle;fontFamily=Helvetica;fontSize=11;fontColor=#FFFFFF;startArrow=none;startFill=0;endArrow=openThin;endFill=0;fontStyle=0" parent="O5-8CPs11LgDphCisBiJ-3" source="4REqOIB7tcGAyymllORO-106" edge="1">
          <mxGeometry relative="1" as="geometry">
            <mxPoint x="572.6079822832725" y="286.30899722552516" as="targetPoint" />
            <Array as="points">
              <mxPoint x="416.05689059725654" y="286.3816091954023" />
              <mxPoint x="416.05689059725654" y="312.70344827586206" />
              <mxPoint x="539.0613197791263" y="312.70344827586206" />
              <mxPoint x="539.0613197791263" y="286.3816091954023" />
            </Array>
          </mxGeometry>
        </mxCell>
        <mxCell id="4REqOIB7tcGAyymllORO-106" value="&lt;font style=&quot;font-size: 14px;&quot;&gt;&lt;b style=&quot;font-size: 14px;&quot;&gt;Count&lt;/b&gt;&lt;/font&gt;" style="rounded=1;whiteSpace=wrap;html=1;strokeColor=#DB918D;fontFamily=Helvetica;fontSize=14;fontColor=#FFFFFF;fillColor=none;arcSize=0;fontStyle=0;shadow=0;labelBackgroundColor=none;container=0;strokeWidth=3;" parent="O5-8CPs11LgDphCisBiJ-3" vertex="1">
          <mxGeometry x="308.70757058398857" y="270.5885057471264" width="78.27554584300793" height="31.586206896551722" as="geometry" />
        </mxCell>
        <mxCell id="4REqOIB7tcGAyymllORO-123" style="edgeStyle=orthogonalEdgeStyle;shape=connector;curved=0;rounded=1;orthogonalLoop=1;jettySize=auto;html=1;exitX=1;exitY=0.5;exitDx=0;exitDy=0;labelBackgroundColor=default;strokeColor=#DB918D;strokeWidth=3;align=center;verticalAlign=middle;fontFamily=Helvetica;fontSize=11;fontColor=#FFFFFF;startArrow=none;startFill=0;endArrow=openThin;endFill=0;fontStyle=0" parent="O5-8CPs11LgDphCisBiJ-3" source="4REqOIB7tcGAyymllORO-107" edge="1">
          <mxGeometry relative="1" as="geometry">
            <mxPoint x="572.6079822832725" y="286.351091121106" as="targetPoint" />
          </mxGeometry>
        </mxCell>
        <mxCell id="4REqOIB7tcGAyymllORO-107" value="&lt;font style=&quot;font-size: 14px;&quot;&gt;&lt;b style=&quot;font-size: 14px;&quot;&gt;Timeout&lt;/b&gt;&lt;/font&gt;" style="rounded=1;whiteSpace=wrap;html=1;strokeColor=#DB918D;fontFamily=Helvetica;fontSize=14;fontColor=#FFFFFF;fillColor=none;arcSize=0;fontStyle=0;shadow=0;labelBackgroundColor=none;container=0;strokeWidth=3;" parent="O5-8CPs11LgDphCisBiJ-3" vertex="1">
          <mxGeometry x="440.65777643363054" y="270.5885057471264" width="78.27554584300793" height="31.586206896551722" as="geometry" />
        </mxCell>
        <mxCell id="4REqOIB7tcGAyymllORO-122" style="edgeStyle=orthogonalEdgeStyle;shape=connector;curved=0;rounded=1;orthogonalLoop=1;jettySize=auto;html=1;exitX=1;exitY=0.5;exitDx=0;exitDy=0;entryX=0;entryY=0.5;entryDx=0;entryDy=0;labelBackgroundColor=default;strokeColor=#DB918D;strokeWidth=3;align=center;verticalAlign=middle;fontFamily=Helvetica;fontSize=11;fontColor=#FFFFFF;startArrow=none;startFill=0;endArrow=openThin;endFill=0;fontStyle=0" parent="O5-8CPs11LgDphCisBiJ-3" source="4REqOIB7tcGAyymllORO-106" target="4REqOIB7tcGAyymllORO-107" edge="1">
          <mxGeometry relative="1" as="geometry" />
        </mxCell>
        <mxCell id="4REqOIB7tcGAyymllORO-114" style="edgeStyle=orthogonalEdgeStyle;shape=connector;curved=0;rounded=1;orthogonalLoop=1;jettySize=auto;html=1;exitX=1;exitY=0.5;exitDx=0;exitDy=0;labelBackgroundColor=default;strokeColor=#DB918D;strokeWidth=3;align=center;verticalAlign=middle;fontFamily=Helvetica;fontSize=11;fontColor=#FFFFFF;startArrow=none;startFill=0;endArrow=openThin;endFill=0;entryX=-0.013;entryY=0.943;entryDx=0;entryDy=0;entryPerimeter=0;fontStyle=0" parent="O5-8CPs11LgDphCisBiJ-3" source="4REqOIB7tcGAyymllORO-111" edge="1">
          <mxGeometry relative="1" as="geometry">
            <mxPoint x="573.1" y="236.9807816091953" as="targetPoint" />
          </mxGeometry>
        </mxCell>
        <mxCell id="4REqOIB7tcGAyymllORO-111" value="&lt;font style=&quot;font-size: 14px;&quot;&gt;&lt;b style=&quot;font-size: 14px;&quot;&gt;Properties&lt;/b&gt;&lt;/font&gt;" style="rounded=1;whiteSpace=wrap;html=1;strokeColor=#DB918D;fontFamily=Helvetica;fontSize=14;fontColor=#FFFFFF;fillColor=none;arcSize=0;fontStyle=0;shadow=0;labelBackgroundColor=none;container=0;strokeWidth=3;" parent="O5-8CPs11LgDphCisBiJ-3" vertex="1">
          <mxGeometry x="438.42133226668744" y="221.10344827586206" width="78.27554584300793" height="31.586206896551722" as="geometry" />
        </mxCell>
        <mxCell id="4REqOIB7tcGAyymllORO-113" style="edgeStyle=orthogonalEdgeStyle;shape=connector;curved=0;rounded=1;orthogonalLoop=1;jettySize=auto;html=1;exitX=1;exitY=0.5;exitDx=0;exitDy=0;entryX=0;entryY=0.5;entryDx=0;entryDy=0;labelBackgroundColor=default;strokeColor=#DB918D;strokeWidth=3;align=center;verticalAlign=middle;fontFamily=Helvetica;fontSize=11;fontColor=#FFFFFF;startArrow=none;startFill=0;endArrow=openThin;endFill=0;fontStyle=0" parent="O5-8CPs11LgDphCisBiJ-3" source="4REqOIB7tcGAyymllORO-104" target="4REqOIB7tcGAyymllORO-111" edge="1">
          <mxGeometry relative="1" as="geometry" />
        </mxCell>
        <mxCell id="4REqOIB7tcGAyymllORO-116" style="edgeStyle=orthogonalEdgeStyle;shape=connector;curved=0;rounded=0;orthogonalLoop=1;jettySize=auto;html=1;labelBackgroundColor=default;strokeColor=#DB918D;strokeWidth=3;align=center;verticalAlign=middle;fontFamily=Helvetica;fontSize=11;fontColor=#FFFFFF;endArrow=none;endFill=0;startArrow=openThin;startFill=0;fontStyle=0" parent="O5-8CPs11LgDphCisBiJ-3" edge="1">
          <mxGeometry relative="1" as="geometry">
            <mxPoint x="2.314719712786148" y="286.3816091954023" as="targetPoint" />
            <mxPoint x="80.59026555579396" y="286.3816091954023" as="sourcePoint" />
          </mxGeometry>
        </mxCell>
        <mxCell id="4REqOIB7tcGAyymllORO-117" value="&lt;font style=&quot;font-size: 14px;&quot;&gt;&lt;b style=&quot;font-size: 14px;&quot;&gt;Properties&lt;br style=&quot;font-size: 14px;&quot;&gt;&lt;/b&gt;&lt;/font&gt;" style="text;html=1;strokeColor=none;fillColor=none;align=left;verticalAlign=middle;whiteSpace=wrap;rounded=0;fontSize=14;fontFamily=Helvetica;fontColor=#FFFFFF;container=0;fontStyle=0" parent="O5-8CPs11LgDphCisBiJ-3" vertex="1">
          <mxGeometry y="260.0597701149425" width="67.09332500829252" height="31.586206896551722" as="geometry" />
        </mxCell>
        <mxCell id="4REqOIB7tcGAyymllORO-119" value="" style="edgeStyle=orthogonalEdgeStyle;shape=connector;curved=0;rounded=1;orthogonalLoop=1;jettySize=auto;html=1;labelBackgroundColor=default;strokeColor=#DB918D;strokeWidth=3;align=center;verticalAlign=middle;fontFamily=Helvetica;fontSize=11;fontColor=#FFFFFF;startArrow=none;startFill=0;endArrow=openThin;endFill=0;fontStyle=0" parent="O5-8CPs11LgDphCisBiJ-3" source="4REqOIB7tcGAyymllORO-105" target="4REqOIB7tcGAyymllORO-102" edge="1">
          <mxGeometry relative="1" as="geometry">
            <mxPoint x="144.32892431367185" y="286.3816091954023" as="sourcePoint" />
            <mxPoint x="270.68801974595607" y="286.3816091954023" as="targetPoint" />
          </mxGeometry>
        </mxCell>
        <mxCell id="4REqOIB7tcGAyymllORO-124" style="edgeStyle=orthogonalEdgeStyle;shape=connector;curved=0;rounded=1;orthogonalLoop=1;jettySize=auto;html=1;exitX=1;exitY=0.5;exitDx=0;exitDy=0;entryX=0;entryY=0.5;entryDx=0;entryDy=0;labelBackgroundColor=default;strokeColor=#DB918D;strokeWidth=3;align=center;verticalAlign=middle;fontFamily=Helvetica;fontSize=11;fontColor=#FFFFFF;startArrow=none;startFill=0;endArrow=openThin;endFill=0;fontStyle=0" parent="O5-8CPs11LgDphCisBiJ-3" source="4REqOIB7tcGAyymllORO-102" target="4REqOIB7tcGAyymllORO-107" edge="1">
          <mxGeometry relative="1" as="geometry">
            <Array as="points">
              <mxPoint x="281.8702405806715" y="286.3816091954023" />
              <mxPoint x="281.8702405806715" y="312.70344827586206" />
              <mxPoint x="404.8746697625412" y="312.70344827586206" />
              <mxPoint x="404.8746697625412" y="286.3816091954023" />
            </Array>
          </mxGeometry>
        </mxCell>
        <mxCell id="4REqOIB7tcGAyymllORO-102" value="&lt;font style=&quot;font-size: 14px;&quot;&gt;&lt;b style=&quot;font-size: 14px;&quot;&gt;Required&lt;/b&gt;&lt;/font&gt;" style="rounded=1;whiteSpace=wrap;html=1;strokeColor=#DB918D;fontFamily=Helvetica;fontSize=14;fontColor=#FFFFFF;fillColor=none;arcSize=0;fontStyle=0;shadow=0;labelBackgroundColor=none;container=0;strokeWidth=3;" parent="O5-8CPs11LgDphCisBiJ-3" vertex="1">
          <mxGeometry x="187.939585569062" y="270.5885057471264" width="78.27554584300793" height="31.586206896551722" as="geometry" />
        </mxCell>
        <mxCell id="4REqOIB7tcGAyymllORO-118" value="" style="edgeStyle=orthogonalEdgeStyle;shape=connector;curved=0;rounded=1;orthogonalLoop=1;jettySize=auto;html=1;labelBackgroundColor=default;strokeColor=#DB918D;strokeWidth=3;align=center;verticalAlign=middle;fontFamily=Helvetica;fontSize=11;fontColor=#FFFFFF;startArrow=none;startFill=0;endArrow=openThin;endFill=0;fontStyle=0" parent="O5-8CPs11LgDphCisBiJ-3" source="4REqOIB7tcGAyymllORO-102" target="4REqOIB7tcGAyymllORO-106" edge="1">
          <mxGeometry relative="1" as="geometry" />
        </mxCell>
        <mxCell id="4REqOIB7tcGAyymllORO-163" style="edgeStyle=orthogonalEdgeStyle;shape=connector;curved=0;rounded=0;orthogonalLoop=1;jettySize=auto;html=1;labelBackgroundColor=default;strokeColor=#DB918D;strokeWidth=3;align=center;verticalAlign=middle;fontFamily=Helvetica;fontSize=11;fontColor=#FFFFFF;endArrow=none;endFill=0;startArrow=openThin;startFill=0;exitX=0;exitY=0.5;exitDx=0;exitDy=0;fontStyle=0" parent="O5-8CPs11LgDphCisBiJ-3" source="4REqOIB7tcGAyymllORO-165" edge="1">
          <mxGeometry relative="1" as="geometry">
            <mxPoint x="297.5253497492731" y="348.50114942528734" as="targetPoint" />
            <mxPoint x="364.61867475756566" y="349.5540229885057" as="sourcePoint" />
            <Array as="points">
              <mxPoint x="299.7617939162162" y="348.50114942528734" />
            </Array>
          </mxGeometry>
        </mxCell>
        <mxCell id="4REqOIB7tcGAyymllORO-164" value="&lt;font style=&quot;font-size: 14px;&quot;&gt;&lt;b style=&quot;font-size: 14px;&quot;&gt;Required&lt;br style=&quot;font-size: 14px;&quot;&gt;&lt;/b&gt;&lt;/font&gt;" style="text;html=1;strokeColor=#DB918D;fillColor=none;align=left;verticalAlign=middle;whiteSpace=wrap;rounded=0;fontSize=14;fontFamily=Helvetica;fontColor=#FFFFFF;container=0;fontStyle=0" parent="O5-8CPs11LgDphCisBiJ-3" vertex="1">
          <mxGeometry x="299.4151450703401" y="326.39080459770116" width="67.09332500829252" height="21.057471264367816" as="geometry" />
        </mxCell>
        <mxCell id="4REqOIB7tcGAyymllORO-165" value="&lt;font style=&quot;font-size: 14px;&quot;&gt;&lt;b style=&quot;font-size: 14px;&quot;&gt;required:&lt;/b&gt;&lt;/font&gt;" style="rounded=1;whiteSpace=wrap;html=1;strokeColor=#DB918D;fontFamily=Helvetica;fontSize=14;fontColor=#FFFFFF;fillColor=none;arcSize=50;fontStyle=0;shadow=0;labelBackgroundColor=none;align=center;verticalAlign=middle;strokeWidth=3;container=0;" parent="O5-8CPs11LgDphCisBiJ-3" vertex="1">
          <mxGeometry x="373.5756336461727" y="332.70804597701147" width="76.02791945523013" height="31.586206896551722" as="geometry" />
        </mxCell>
        <mxCell id="4REqOIB7tcGAyymllORO-168" style="edgeStyle=orthogonalEdgeStyle;shape=connector;curved=0;rounded=1;orthogonalLoop=1;jettySize=auto;html=1;exitX=1;exitY=0.5;exitDx=0;exitDy=0;labelBackgroundColor=default;strokeColor=#DB918D;strokeWidth=3;align=center;verticalAlign=middle;fontFamily=Helvetica;fontSize=11;fontColor=#FFFFFF;startArrow=none;startFill=0;endArrow=openThin;endFill=0;fontStyle=0" parent="O5-8CPs11LgDphCisBiJ-3" source="4REqOIB7tcGAyymllORO-166" edge="1">
          <mxGeometry relative="1" as="geometry">
            <mxPoint x="572.6079822832725" y="348.50114942528734" as="targetPoint" />
          </mxGeometry>
        </mxCell>
        <mxCell id="4REqOIB7tcGAyymllORO-166" value="&lt;b style=&quot;border-color: var(--border-color); font-size: 14px;&quot;&gt;&lt;font style=&quot;border-color: var(--border-color); font-size: 14px;&quot;&gt;Boolean&lt;/font&gt;&lt;/b&gt;" style="ellipse;whiteSpace=wrap;html=1;rounded=1;labelBackgroundColor=none;strokeColor=#DB918D;fontFamily=Helvetica;fontSize=14;fontColor=#FFFFFF;fillColor=none;container=0;strokeWidth=3;fontStyle=0" parent="O5-8CPs11LgDphCisBiJ-3" vertex="1">
          <mxGeometry x="469.7315506038906" y="332.70804597701147" width="78.27554584300793" height="31.586206896551722" as="geometry" />
        </mxCell>
        <mxCell id="4REqOIB7tcGAyymllORO-167" value="" style="edgeStyle=orthogonalEdgeStyle;shape=connector;curved=0;rounded=1;orthogonalLoop=1;jettySize=auto;html=1;labelBackgroundColor=default;strokeColor=#DB918D;strokeWidth=3;align=center;verticalAlign=middle;fontFamily=Helvetica;fontSize=11;fontColor=#FFFFFF;startArrow=none;startFill=0;endArrow=openThin;endFill=0;fontStyle=0" parent="O5-8CPs11LgDphCisBiJ-3" source="4REqOIB7tcGAyymllORO-165" target="4REqOIB7tcGAyymllORO-166" edge="1">
          <mxGeometry relative="1" as="geometry">
            <Array as="points">
              <mxPoint x="454.07644143528904" y="348.50114942528734" />
              <mxPoint x="454.07644143528904" y="348.50114942528734" />
            </Array>
          </mxGeometry>
        </mxCell>
        <mxCell id="4REqOIB7tcGAyymllORO-172" style="edgeStyle=orthogonalEdgeStyle;shape=connector;curved=0;rounded=0;orthogonalLoop=1;jettySize=auto;html=1;labelBackgroundColor=default;strokeColor=#DB918D;strokeWidth=3;align=center;verticalAlign=middle;fontFamily=Helvetica;fontSize=11;fontColor=#FFFFFF;endArrow=none;endFill=0;startArrow=openThin;startFill=0;exitX=0;exitY=0.5;exitDx=0;exitDy=0;fontStyle=0" parent="O5-8CPs11LgDphCisBiJ-3" source="4REqOIB7tcGAyymllORO-174" edge="1">
          <mxGeometry relative="1" as="geometry">
            <mxPoint x="297.87199859514925" y="395.88045977011495" as="targetPoint" />
            <mxPoint x="364.96532360344173" y="396.93333333333334" as="sourcePoint" />
            <Array as="points">
              <mxPoint x="300.10844276209235" y="395.88045977011495" />
            </Array>
          </mxGeometry>
        </mxCell>
        <mxCell id="4REqOIB7tcGAyymllORO-173" value="&lt;font style=&quot;font-size: 14px;&quot;&gt;&lt;b style=&quot;font-size: 14px;&quot;&gt;Count&lt;br style=&quot;font-size: 14px;&quot;&gt;&lt;/b&gt;&lt;/font&gt;" style="text;html=1;strokeColor=#DB918D;fillColor=none;align=left;verticalAlign=middle;whiteSpace=wrap;rounded=0;fontSize=14;fontFamily=Helvetica;fontColor=#FFFFFF;container=0;fontStyle=0" parent="O5-8CPs11LgDphCisBiJ-3" vertex="1">
          <mxGeometry x="299.7617939162162" y="373.7701149425287" width="67.09332500829252" height="21.057471264367816" as="geometry" />
        </mxCell>
        <mxCell id="4REqOIB7tcGAyymllORO-174" value="&lt;font style=&quot;font-size: 14px;&quot;&gt;&lt;b style=&quot;font-size: 14px;&quot;&gt;count:&lt;/b&gt;&lt;/font&gt;" style="rounded=1;whiteSpace=wrap;html=1;strokeColor=#DB918D;fontFamily=Helvetica;fontSize=14;fontColor=#FFFFFF;fillColor=none;arcSize=50;fontStyle=0;shadow=0;labelBackgroundColor=none;align=center;verticalAlign=middle;strokeWidth=3;container=0;" parent="O5-8CPs11LgDphCisBiJ-3" vertex="1">
          <mxGeometry x="373.92228249204885" y="380.0873563218391" width="76.02791945523013" height="31.586206896551722" as="geometry" />
        </mxCell>
        <mxCell id="4REqOIB7tcGAyymllORO-175" style="edgeStyle=orthogonalEdgeStyle;shape=connector;curved=0;rounded=1;orthogonalLoop=1;jettySize=auto;html=1;exitX=1;exitY=0.5;exitDx=0;exitDy=0;labelBackgroundColor=default;strokeColor=#DB918D;strokeWidth=3;align=center;verticalAlign=middle;fontFamily=Helvetica;fontSize=11;fontColor=#FFFFFF;startArrow=none;startFill=0;endArrow=openThin;endFill=0;fontStyle=0" parent="O5-8CPs11LgDphCisBiJ-3" source="4REqOIB7tcGAyymllORO-176" edge="1">
          <mxGeometry relative="1" as="geometry">
            <mxPoint x="572.9546311291487" y="395.88045977011495" as="targetPoint" />
          </mxGeometry>
        </mxCell>
        <mxCell id="4REqOIB7tcGAyymllORO-176" value="&lt;b style=&quot;border-color: var(--border-color); font-size: 14px;&quot;&gt;&lt;font style=&quot;border-color: var(--border-color); font-size: 14px;&quot;&gt;Integer&lt;/font&gt;&lt;/b&gt;" style="ellipse;whiteSpace=wrap;html=1;rounded=1;labelBackgroundColor=none;strokeColor=#DB918D;fontFamily=Helvetica;fontSize=14;fontColor=#FFFFFF;fillColor=none;container=0;strokeWidth=3;fontStyle=0" parent="O5-8CPs11LgDphCisBiJ-3" vertex="1">
          <mxGeometry x="470.0781994497667" y="380.0873563218391" width="78.27554584300793" height="31.586206896551722" as="geometry" />
        </mxCell>
        <mxCell id="4REqOIB7tcGAyymllORO-177" value="" style="edgeStyle=orthogonalEdgeStyle;shape=connector;curved=0;rounded=1;orthogonalLoop=1;jettySize=auto;html=1;labelBackgroundColor=default;strokeColor=#DB918D;strokeWidth=3;align=center;verticalAlign=middle;fontFamily=Helvetica;fontSize=11;fontColor=#FFFFFF;startArrow=none;startFill=0;endArrow=openThin;endFill=0;fontStyle=0" parent="O5-8CPs11LgDphCisBiJ-3" source="4REqOIB7tcGAyymllORO-174" target="4REqOIB7tcGAyymllORO-176" edge="1">
          <mxGeometry relative="1" as="geometry">
            <Array as="points">
              <mxPoint x="454.4230902811652" y="395.88045977011495" />
              <mxPoint x="454.4230902811652" y="395.88045977011495" />
            </Array>
          </mxGeometry>
        </mxCell>
        <mxCell id="4REqOIB7tcGAyymllORO-186" style="edgeStyle=orthogonalEdgeStyle;shape=connector;curved=0;rounded=0;orthogonalLoop=1;jettySize=auto;html=1;labelBackgroundColor=default;strokeColor=#DB918D;strokeWidth=3;align=center;verticalAlign=middle;fontFamily=Helvetica;fontSize=11;fontColor=#FFFFFF;endArrow=none;endFill=0;startArrow=openThin;startFill=0;exitX=0;exitY=0.5;exitDx=0;exitDy=0;fontStyle=0" parent="O5-8CPs11LgDphCisBiJ-3" source="4REqOIB7tcGAyymllORO-188" edge="1">
          <mxGeometry relative="1" as="geometry">
            <mxPoint x="297.87199859514925" y="442.2068965517241" as="targetPoint" />
            <mxPoint x="364.96532360344173" y="443.2597701149425" as="sourcePoint" />
            <Array as="points">
              <mxPoint x="300.10844276209235" y="442.2068965517241" />
            </Array>
          </mxGeometry>
        </mxCell>
        <mxCell id="4REqOIB7tcGAyymllORO-187" value="&lt;font style=&quot;font-size: 14px;&quot;&gt;&lt;b style=&quot;font-size: 14px;&quot;&gt;Timeout&lt;br style=&quot;font-size: 14px;&quot;&gt;&lt;/b&gt;&lt;/font&gt;" style="text;html=1;strokeColor=#DB918D;fillColor=none;align=left;verticalAlign=middle;whiteSpace=wrap;rounded=0;fontSize=14;fontFamily=Helvetica;fontColor=#FFFFFF;container=0;fontStyle=0" parent="O5-8CPs11LgDphCisBiJ-3" vertex="1">
          <mxGeometry x="299.7617939162162" y="420.0965517241379" width="67.09332500829252" height="21.057471264367816" as="geometry" />
        </mxCell>
        <mxCell id="4REqOIB7tcGAyymllORO-188" value="&lt;font style=&quot;font-size: 14px;&quot;&gt;&lt;b style=&quot;font-size: 14px;&quot;&gt;timeout:&lt;/b&gt;&lt;/font&gt;" style="rounded=1;whiteSpace=wrap;html=1;strokeColor=#DB918D;fontFamily=Helvetica;fontSize=14;fontColor=#FFFFFF;fillColor=none;arcSize=50;fontStyle=0;shadow=0;labelBackgroundColor=none;align=center;verticalAlign=middle;strokeWidth=3;container=0;" parent="O5-8CPs11LgDphCisBiJ-3" vertex="1">
          <mxGeometry x="373.92228249204885" y="426.41379310344826" width="76.02791945523013" height="31.586206896551722" as="geometry" />
        </mxCell>
        <mxCell id="4REqOIB7tcGAyymllORO-189" style="edgeStyle=orthogonalEdgeStyle;shape=connector;curved=0;rounded=1;orthogonalLoop=1;jettySize=auto;html=1;exitX=1;exitY=0.5;exitDx=0;exitDy=0;labelBackgroundColor=default;strokeColor=#DB918D;strokeWidth=3;align=center;verticalAlign=middle;fontFamily=Helvetica;fontSize=11;fontColor=#FFFFFF;startArrow=none;startFill=0;endArrow=openThin;endFill=0;fontStyle=0" parent="O5-8CPs11LgDphCisBiJ-3" source="4REqOIB7tcGAyymllORO-190" edge="1">
          <mxGeometry relative="1" as="geometry">
            <mxPoint x="572.9546311291487" y="442.2068965517241" as="targetPoint" />
          </mxGeometry>
        </mxCell>
        <mxCell id="4REqOIB7tcGAyymllORO-190" value="&lt;b style=&quot;border-color: var(--border-color); font-size: 14px;&quot;&gt;&lt;font style=&quot;border-color: var(--border-color); font-size: 14px;&quot;&gt;Integer&lt;/font&gt;&lt;/b&gt;" style="ellipse;whiteSpace=wrap;html=1;rounded=1;labelBackgroundColor=none;strokeColor=#DB918D;fontFamily=Helvetica;fontSize=14;fontColor=#FFFFFF;fillColor=none;container=0;strokeWidth=3;fontStyle=0" parent="O5-8CPs11LgDphCisBiJ-3" vertex="1">
          <mxGeometry x="470.0781994497667" y="426.41379310344826" width="78.27554584300793" height="31.586206896551722" as="geometry" />
        </mxCell>
        <mxCell id="4REqOIB7tcGAyymllORO-191" value="" style="edgeStyle=orthogonalEdgeStyle;shape=connector;curved=0;rounded=1;orthogonalLoop=1;jettySize=auto;html=1;labelBackgroundColor=default;strokeColor=#DB918D;strokeWidth=3;align=center;verticalAlign=middle;fontFamily=Helvetica;fontSize=11;fontColor=#FFFFFF;startArrow=none;startFill=0;endArrow=openThin;endFill=0;fontStyle=0" parent="O5-8CPs11LgDphCisBiJ-3" source="4REqOIB7tcGAyymllORO-188" target="4REqOIB7tcGAyymllORO-190" edge="1">
          <mxGeometry relative="1" as="geometry">
            <Array as="points">
              <mxPoint x="454.4230902811652" y="442.2068965517241" />
              <mxPoint x="454.4230902811652" y="442.2068965517241" />
            </Array>
          </mxGeometry>
        </mxCell>
        <mxCell id="4REqOIB7tcGAyymllORO-152" style="edgeStyle=orthogonalEdgeStyle;shape=connector;curved=0;rounded=1;orthogonalLoop=1;jettySize=auto;html=1;exitX=1;exitY=0.5;exitDx=0;exitDy=0;labelBackgroundColor=default;strokeColor=#DB918D;strokeWidth=3;align=center;verticalAlign=middle;fontFamily=Helvetica;fontSize=11;fontColor=#FFFFFF;startArrow=none;startFill=0;endArrow=openThin;endFill=0;fontStyle=0" parent="O5-8CPs11LgDphCisBiJ-3" source="4REqOIB7tcGAyymllORO-74" edge="1">
          <mxGeometry relative="1" as="geometry">
            <mxPoint x="293.052461415387" y="392.72183908045974" as="targetPoint" />
            <Array as="points">
              <mxPoint x="270.68801974595607" y="350.6068965517241" />
              <mxPoint x="270.68801974595607" y="392.72183908045974" />
            </Array>
          </mxGeometry>
        </mxCell>
        <mxCell id="4REqOIB7tcGAyymllORO-74" value="&lt;b style=&quot;border-color: var(--border-color); font-size: 14px;&quot;&gt;&lt;font style=&quot;border-color: var(--border-color); font-size: 14px;&quot;&gt;&quot;number&quot;&lt;/font&gt;&lt;/b&gt;" style="ellipse;whiteSpace=wrap;html=1;rounded=1;labelBackgroundColor=none;strokeColor=#DB918D;fontFamily=Helvetica;fontSize=14;fontColor=#FFFFFF;fillColor=none;container=0;strokeWidth=3;fontStyle=0" parent="O5-8CPs11LgDphCisBiJ-3" vertex="1">
          <mxGeometry x="172.28447640046042" y="334.8137931034483" width="78.27554584300793" height="31.586206896551722" as="geometry" />
        </mxCell>
        <mxCell id="4REqOIB7tcGAyymllORO-126" style="edgeStyle=orthogonalEdgeStyle;shape=connector;curved=0;rounded=0;orthogonalLoop=1;jettySize=auto;html=1;labelBackgroundColor=default;strokeColor=#DB918D;strokeWidth=3;align=center;verticalAlign=middle;fontFamily=Helvetica;fontSize=11;fontColor=#FFFFFF;endArrow=none;endFill=0;startArrow=openThin;startFill=0;fontStyle=0" parent="O5-8CPs11LgDphCisBiJ-3" edge="1">
          <mxGeometry relative="1" as="geometry">
            <mxPoint x="4.204515033853116" y="393.77471264367813" as="targetPoint" />
            <mxPoint x="69.6205069169382" y="393.77471264367813" as="sourcePoint" />
          </mxGeometry>
        </mxCell>
        <mxCell id="4REqOIB7tcGAyymllORO-127" value="&lt;font style=&quot;font-size: 14px;&quot;&gt;&lt;b style=&quot;font-size: 14px;&quot;&gt;Output&lt;br style=&quot;font-size: 14px;&quot;&gt;&lt;/b&gt;&lt;/font&gt;" style="text;html=1;strokeColor=none;fillColor=none;align=left;verticalAlign=middle;whiteSpace=wrap;rounded=0;fontSize=14;fontFamily=Helvetica;fontColor=#FFFFFF;container=0;fontStyle=0" parent="O5-8CPs11LgDphCisBiJ-3" vertex="1">
          <mxGeometry x="4.416977229712642" y="370.61149425287357" width="67.09332500829252" height="21.057471264367816" as="geometry" />
        </mxCell>
        <mxCell id="4REqOIB7tcGAyymllORO-148" style="edgeStyle=orthogonalEdgeStyle;shape=connector;curved=0;rounded=1;orthogonalLoop=1;jettySize=auto;html=1;exitX=1;exitY=0.5;exitDx=0;exitDy=0;entryX=0;entryY=0.5;entryDx=0;entryDy=0;labelBackgroundColor=default;strokeColor=#DB918D;strokeWidth=3;align=center;verticalAlign=middle;fontFamily=Helvetica;fontSize=11;fontColor=#FFFFFF;startArrow=none;startFill=0;endArrow=openThin;endFill=0;fontStyle=0" parent="O5-8CPs11LgDphCisBiJ-3" source="4REqOIB7tcGAyymllORO-128" target="4REqOIB7tcGAyymllORO-74" edge="1">
          <mxGeometry relative="1" as="geometry">
            <Array as="points">
              <mxPoint x="147.6835905640865" y="392.72183908045974" />
              <mxPoint x="147.6835905640865" y="350.6068965517241" />
            </Array>
          </mxGeometry>
        </mxCell>
        <mxCell id="4REqOIB7tcGAyymllORO-128" value="&lt;font style=&quot;font-size: 14px;&quot;&gt;&lt;b style=&quot;font-size: 14px;&quot;&gt;output:&lt;/b&gt;&lt;/font&gt;" style="rounded=1;whiteSpace=wrap;html=1;strokeColor=#DB918D;fontFamily=Helvetica;fontSize=14;fontColor=#FFFFFF;fillColor=none;arcSize=50;fontStyle=0;shadow=0;labelBackgroundColor=none;align=center;verticalAlign=middle;strokeWidth=3;container=0;" parent="O5-8CPs11LgDphCisBiJ-3" vertex="1">
          <mxGeometry x="71.86813330471624" y="376.9287356321839" width="64.84569862051472" height="31.586206896551722" as="geometry" />
        </mxCell>
        <mxCell id="4REqOIB7tcGAyymllORO-151" style="edgeStyle=orthogonalEdgeStyle;shape=connector;curved=0;rounded=1;orthogonalLoop=1;jettySize=auto;html=1;exitX=1;exitY=0.5;exitDx=0;exitDy=0;labelBackgroundColor=default;strokeColor=#DB918D;strokeWidth=3;align=center;verticalAlign=middle;fontFamily=Helvetica;fontSize=11;fontColor=#FFFFFF;startArrow=none;startFill=0;endArrow=openThin;endFill=0;fontStyle=0" parent="O5-8CPs11LgDphCisBiJ-3" source="4REqOIB7tcGAyymllORO-146" edge="1">
          <mxGeometry relative="1" as="geometry">
            <mxPoint x="293.052461415387" y="392.72183908045974" as="targetPoint" />
          </mxGeometry>
        </mxCell>
        <mxCell id="4REqOIB7tcGAyymllORO-146" value="&lt;b style=&quot;border-color: var(--border-color); font-size: 14px;&quot;&gt;&lt;font style=&quot;border-color: var(--border-color); font-size: 14px;&quot;&gt;&quot;text&quot;&lt;/font&gt;&lt;/b&gt;" style="ellipse;whiteSpace=wrap;html=1;rounded=1;labelBackgroundColor=none;strokeColor=#DB918D;fontFamily=Helvetica;fontSize=14;fontColor=#FFFFFF;fillColor=none;container=0;strokeWidth=3;fontStyle=0" parent="O5-8CPs11LgDphCisBiJ-3" vertex="1">
          <mxGeometry x="172.28447640046042" y="376.9287356321839" width="78.27554584300793" height="31.586206896551722" as="geometry" />
        </mxCell>
        <mxCell id="4REqOIB7tcGAyymllORO-149" style="edgeStyle=orthogonalEdgeStyle;shape=connector;curved=0;rounded=1;orthogonalLoop=1;jettySize=auto;html=1;exitX=1;exitY=0.5;exitDx=0;exitDy=0;entryX=0;entryY=0.5;entryDx=0;entryDy=0;labelBackgroundColor=default;strokeColor=#DB918D;strokeWidth=3;align=center;verticalAlign=middle;fontFamily=Helvetica;fontSize=11;fontColor=#FFFFFF;startArrow=none;startFill=0;endArrow=openThin;endFill=0;fontStyle=0" parent="O5-8CPs11LgDphCisBiJ-3" source="4REqOIB7tcGAyymllORO-128" target="4REqOIB7tcGAyymllORO-146" edge="1">
          <mxGeometry relative="1" as="geometry" />
        </mxCell>
        <mxCell id="4REqOIB7tcGAyymllORO-153" style="edgeStyle=orthogonalEdgeStyle;shape=connector;curved=0;rounded=1;orthogonalLoop=1;jettySize=auto;html=1;exitX=1;exitY=0.5;exitDx=0;exitDy=0;labelBackgroundColor=default;strokeColor=#DB918D;strokeWidth=3;align=center;verticalAlign=middle;fontFamily=Helvetica;fontSize=11;fontColor=#FFFFFF;startArrow=none;startFill=0;endArrow=openThin;endFill=0;fontStyle=0" parent="O5-8CPs11LgDphCisBiJ-3" source="4REqOIB7tcGAyymllORO-147" edge="1">
          <mxGeometry relative="1" as="geometry">
            <mxPoint x="293.052461415387" y="392.72183908045974" as="targetPoint" />
            <Array as="points">
              <mxPoint x="270.68801974595607" y="434.8367816091954" />
              <mxPoint x="270.68801974595607" y="392.72183908045974" />
            </Array>
          </mxGeometry>
        </mxCell>
        <mxCell id="4REqOIB7tcGAyymllORO-147" value="&lt;b style=&quot;border-color: var(--border-color); font-size: 14px;&quot;&gt;&lt;font style=&quot;border-color: var(--border-color); font-size: 14px;&quot;&gt;&quot;bool&quot;&lt;/font&gt;&lt;/b&gt;" style="ellipse;whiteSpace=wrap;html=1;rounded=1;labelBackgroundColor=none;strokeColor=#DB918D;fontFamily=Helvetica;fontSize=14;fontColor=#FFFFFF;fillColor=none;container=0;strokeWidth=3;fontStyle=0" parent="O5-8CPs11LgDphCisBiJ-3" vertex="1">
          <mxGeometry x="172.28447640046042" y="419.0436781609195" width="78.27554584300793" height="31.586206896551722" as="geometry" />
        </mxCell>
        <mxCell id="4REqOIB7tcGAyymllORO-150" style="edgeStyle=orthogonalEdgeStyle;shape=connector;curved=0;rounded=1;orthogonalLoop=1;jettySize=auto;html=1;exitX=1;exitY=0.5;exitDx=0;exitDy=0;entryX=0;entryY=0.5;entryDx=0;entryDy=0;labelBackgroundColor=default;strokeColor=#DB918D;strokeWidth=3;align=center;verticalAlign=middle;fontFamily=Helvetica;fontSize=11;fontColor=#FFFFFF;startArrow=none;startFill=0;endArrow=openThin;endFill=0;fontStyle=0" parent="O5-8CPs11LgDphCisBiJ-3" source="4REqOIB7tcGAyymllORO-128" target="4REqOIB7tcGAyymllORO-147" edge="1">
          <mxGeometry relative="1" as="geometry">
            <Array as="points">
              <mxPoint x="147.6835905640865" y="392.72183908045974" />
              <mxPoint x="147.6835905640865" y="434.8367816091954" />
            </Array>
          </mxGeometry>
        </mxCell>
      </root>
    </mxGraphModel>
  </diagram>
</mxfile>
